<?xml version="1.0" encoding="UTF-8"?>
<svg width="89px" height="71px" viewBox="0 0 89 71" version="1.1" xmlns="http://www.w3.org/2000/svg" xmlns:xlink="http://www.w3.org/1999/xlink">
    <!-- Generator: Sketch 42 (36781) - http://www.bohemiancoding.com/sketch -->
    <title>Group 4</title>
    <desc>Created with Sketch.</desc>
    <defs>
        <rect id="path-1" x="27.9275362" y="58.8909091" width="45.1449275" height="27.1090909"></rect>
        <mask id="mask-2" maskContentUnits="userSpaceOnUse" maskUnits="objectBoundingBox" x="0" y="0" width="45.1449275" height="27.1090909" fill="white">
            <use xlink:href="#path-1"></use>
        </mask>
        <path d="M30.3405809,27.8216836 C28.8435757,27.4569788 27.2794992,27.2636364 25.6702899,27.2636364 C14.8043001,27.2636364 6,36.0710661 6,46.9355813 L6,46.9644187 C6,57.824869 14.8066887,66.6363636 25.6702899,66.6363636 C32.5008795,66.6363636 38.5167628,63.155981 42.043017,57.8720595 C44.6502877,58.9447195 47.5060886,59.5363636 50.5,59.5363636 C53.4948999,59.5363636 56.3513381,58.9448619 58.9589754,57.872324 C62.4859117,63.155277 68.501507,66.6363636 75.3297101,66.6363636 C86.1956999,66.6363636 95,57.8289339 95,46.9644187 L95,46.9355813 C95,36.075131 86.1933113,27.2636364 75.3297101,27.2636364 C73.7199176,27.2636364 72.1553757,27.4569446 70.658009,27.8216115 C67.1085204,20.2480888 59.4168043,15 50.5,15 C41.5804246,15 33.889006,20.2466212 30.3405809,27.8216836 Z" id="path-3"></path>
        <mask id="mask-4" maskContentUnits="userSpaceOnUse" maskUnits="objectBoundingBox" x="0" y="0" width="89" height="51.6363636" fill="white">
            <use xlink:href="#path-3"></use>
        </mask>
        <rect id="path-5" x="0" y="0" width="52.884058" height="31.6272727"></rect>
        <rect id="path-7" x="6.44927536" y="-21.3" width="39.3405797" height="39.3727273" rx="19.6702899"></rect>
        <mask id="mask-8" maskContentUnits="userSpaceOnUse" maskUnits="objectBoundingBox" x="0" y="0" width="39.3405797" height="39.3727273" fill="white">
            <use xlink:href="#path-7"></use>
        </mask>
    </defs>
    <g id="oppskrifter" stroke="none" stroke-width="1" fill="none" fill-rule="evenodd">
        <g id="Artboard-2" transform="translate(-417.000000, -45.000000)">
            <g id="Group-4" transform="translate(411.000000, 30.000000)">
                <rect id="Rectangle-3" x="0" y="0" width="100" height="100"></rect>
                <use id="Rectangle-3" stroke="#333333" mask="url(#mask-2)" stroke-width="12" xlink:href="#path-1"></use>
                <use id="Combined-Shape" stroke="#333333" mask="url(#mask-4)" stroke-width="10" fill="#FFFFFF" xlink:href="#path-3"></use>
                <g id="Rectangle-2" transform="translate(24.057971, 51.727273)">
                    <mask id="mask-6" fill="white">
                        <use xlink:href="#path-5"></use>
                    </mask>
                    <g id="Mask"></g>
                    <g mask="url(#mask-6)" stroke-width="10" stroke="#333333" fill="#FFFFFF">
                        <use mask="url(#mask-8)" xlink:href="#path-7"></use>
                    </g>
                </g>
            </g>
        </g>
    </g>
</svg>