<?xml version="1.0" encoding="UTF-8"?>
<svg width="66px" height="78px" viewBox="0 0 66 78" version="1.1" xmlns="http://www.w3.org/2000/svg" xmlns:xlink="http://www.w3.org/1999/xlink">
    <!-- Generator: Sketch 42 (36781) - http://www.bohemiancoding.com/sketch -->
    <title>Group 2</title>
    <desc>Created with Sketch.</desc>
    <defs></defs>
    <g id="oppskrifter" stroke="none" stroke-width="1" fill="none" fill-rule="evenodd">
        <g id="Artboard-2" transform="translate(-97.000000, -232.000000)">
            <g id="Group-2" transform="translate(80.000000, 223.000000)">
                <rect id="Rectangle-6" fill-opacity="0" fill="#FFFFFF" x="0" y="0" width="100" height="100"></rect>
                <g id="ic_timer_black_24px" transform="translate(6.000000, 6.000000)">
                    <g id="Group">
                        <polygon id="Shape" points="0 0 88 0 88 88 0 88"></polygon>
                        <path d="M55,3.66666667 L33,3.66666667 L33,11 L55,11 L55,3.66666667 Z M69.7766667,27.0966667 L74.9833333,21.89 C73.4066667,20.02 71.6833333,18.26 69.8133333,16.72 L64.6066667,21.9266667 C58.9233333,17.38 51.7733333,14.6666667 44,14.6666667 C25.7766667,14.6666667 11,29.4433333 11,47.6666667 C11,65.89 25.74,80.6666667 44,80.6666667 C62.26,80.6666667 77,65.89 77,47.6666667 C77,39.8933333 74.2866667,32.7433333 69.7766667,27.0966667 Z M43.6666667,73 C29.4766667,73 18,61.5233333 18,47.3333333 C18,33.1433333 29.4766667,21.6666667 43.6666667,21.6666667 C57.8566667,21.6666667 69.3333333,33.1433333 69.3333333,47.3333333 C69.3333333,61.5233333 57.8566667,73 43.6666667,73 Z" id="Shape" fill="#333333"></path>
                    </g>
                </g>
            </g>
        </g>
    </g>
</svg>