<?xml version="1.0" encoding="UTF-8"?>
<svg width="34px" height="40px" viewBox="0 0 34 40" version="1.1" xmlns="http://www.w3.org/2000/svg" xmlns:xlink="http://www.w3.org/1999/xlink">
    <!-- Generator: Sketch 42 (36781) - http://www.bohemiancoding.com/sketch -->
    <title>Group 2</title>
    <desc>Created with Sketch.</desc>
    <defs></defs>
    <g id="oppskrifter" stroke="none" stroke-width="1" fill="none" fill-rule="evenodd">
        <g id="Artboard-2" transform="translate(-233.000000, -252.000000)">
            <g id="Group-2" transform="translate(225.000000, 248.000000)">
                <rect id="Rectangle-6" fill-opacity="0" fill="#FFFFFF" x="0" y="0" width="50" height="50"></rect>
                <g id="ic_timer_black_24px" transform="translate(3.000000, 3.000000)">
                    <g id="Group">
                        <polygon id="Shape" points="0 0 44 0 44 44 0 44"></polygon>
                        <path d="M27.5,1.83333333 L16.5,1.83333333 L16.5,5.5 L27.5,5.5 L27.5,1.83333333 Z M34.8883333,13.5483333 L37.4916667,10.945 C36.7033333,10.01 35.8416667,9.13 34.9066667,8.36 L32.3033333,10.9633333 C29.4616667,8.69 25.8866667,7.33333333 22,7.33333333 C12.8883333,7.33333333 5.5,14.7216667 5.5,23.8333333 C5.5,32.945 12.87,40.3333333 22,40.3333333 C31.13,40.3333333 38.5,32.945 38.5,23.8333333 C38.5,19.9466667 37.1433333,16.3716667 34.8883333,13.5483333 Z M21.8333333,36.5 C14.7383333,36.5 9,30.7616667 9,23.6666667 C9,16.5716667 14.7383333,10.8333333 21.8333333,10.8333333 C28.9283333,10.8333333 34.6666667,16.5716667 34.6666667,23.6666667 C34.6666667,30.7616667 28.9283333,36.5 21.8333333,36.5 Z" id="Shape" fill="#333333"></path>
                    </g>
                </g>
            </g>
        </g>
    </g>
</svg>