<?xml version="1.0" encoding="UTF-8"?>
<svg width="157px" height="96px" viewBox="0 0 157 96" version="1.1" xmlns="http://www.w3.org/2000/svg" xmlns:xlink="http://www.w3.org/1999/xlink">
    <!-- Generator: Sketch 41.1 (35376) - http://www.bohemiancoding.com/sketch -->
    <title>Group 22</title>
    <desc>Created with Sketch.</desc>
    <defs>
        <rect id="path-1" x="0" y="0" width="70" height="70" rx="35"></rect>
    </defs>
    <g id="Page-1" stroke="none" stroke-width="1" fill="none" fill-rule="evenodd">
        <g id="Group-22">
            <rect id="Rectangle-16" fill="#333333" x="0" y="78" width="156" height="18"></rect>
            <path d="M24.6825,81.74 L24.6075,81.65 L22.8525,81.65 L22.7775,81.74 L22.7775,85.97 L18.8325,85.97 L18.8325,81.74 L18.7575,81.65 L17.0025,81.65 L16.9275,81.74 L16.9275,91.91 L17.0025,92 L18.7575,92 L18.8325,91.91 L18.8325,87.53 L22.7775,87.53 L22.7775,91.91 L22.8525,92 L24.6075,92 L24.6825,91.91 L24.6825,81.74 Z M33.2325,83.105 L33.2325,81.74 L33.1575,81.65 L26.9925,81.65 L26.9175,81.74 L26.9175,91.91 L26.9925,92 L33.2775,92 L33.3525,91.91 L33.3525,90.545 L33.2775,90.455 L28.8225,90.455 L28.8225,87.515 L32.5275,87.515 L32.6025,87.425 L32.6025,86.06 L32.5275,85.97 L28.8225,85.97 L28.8225,83.195 L33.1575,83.195 L33.2325,83.105 Z M36.9825,81.74 L36.9075,81.65 L35.1525,81.65 L35.0775,81.74 L35.0775,91.91 L35.1525,92 L41.1375,92 L41.2125,91.91 L41.2125,90.545 L41.1375,90.455 L36.9825,90.455 L36.9825,81.74 Z M41.8875,90.77 C42.5625,91.625 43.6725,92.195 45.2175,92.195 C47.4075,92.195 48.9825,91.025 48.9825,88.895 C48.9825,85.085 43.9275,86.63 43.9275,84.335 C43.9275,83.585 44.4675,82.985 45.5175,82.985 C46.2075,82.985 46.7925,83.255 47.2875,83.69 L47.4225,83.69 L48.6075,82.79 L48.6075,82.67 C48.0375,81.995 47.0775,81.44 45.5775,81.44 C43.3125,81.44 42.0675,82.715 42.0675,84.605 C42.0675,88.4 47.1225,86.63 47.1225,89.18 C47.1225,90.14 46.4025,90.665 45.3825,90.665 C44.3025,90.665 43.5825,90.065 43.1925,89.66 L43.0575,89.66 L41.8875,90.635 L41.8875,90.77 Z M56.9475,83.105 L56.9475,81.74 L56.8725,81.65 L50.7075,81.65 L50.6325,81.74 L50.6325,91.91 L50.7075,92 L56.9925,92 L57.0675,91.91 L57.0675,90.545 L56.9925,90.455 L52.5375,90.455 L52.5375,87.515 L56.2425,87.515 L56.3175,87.425 L56.3175,86.06 L56.2425,85.97 L52.5375,85.97 L52.5375,83.195 L56.8725,83.195 L56.9475,83.105 Z M65.3325,83.105 L65.3325,81.74 L65.2575,81.65 L58.8675,81.65 L58.7925,81.74 L58.7925,91.91 L58.8675,92 L60.6225,92 L60.6975,91.91 L60.6975,87.635 L64.6275,87.635 L64.7025,87.545 L64.7025,86.18 L64.6275,86.09 L60.6975,86.09 L60.6975,83.195 L65.2575,83.195 L65.3325,83.105 Z M70.8975,90.68 C69.4275,90.68 68.5725,89.375 68.5725,86.855 C68.5725,84.29 69.4425,82.97 70.8975,82.97 C72.3375,82.97 73.2075,84.29 73.2075,86.855 C73.2075,89.375 72.3675,90.68 70.8975,90.68 Z M70.8975,92.21 C73.3275,92.21 75.1575,90.53 75.1575,86.84 C75.1575,83.135 73.3275,81.44 70.8975,81.44 C68.4675,81.44 66.6375,83.135 66.6375,86.84 C66.6375,90.53 68.4675,92.21 70.8975,92.21 Z M78.9675,83.165 L80.2425,83.165 C81.4875,83.165 82.2675,83.6 82.2675,84.71 C82.2675,85.73 81.5475,86.375 80.0475,86.375 C79.7025,86.375 79.3425,86.36 78.9675,86.33 L78.9675,83.165 Z M77.0625,81.74 L77.0625,91.91 L77.1375,92 L78.8925,92 L78.9675,91.91 L78.9675,87.86 C79.2825,87.89 79.4775,87.905 79.7475,87.905 C79.9125,87.905 80.0775,87.905 80.2575,87.89 C81.0075,89.06 81.6675,90.275 82.6875,92 L84.7725,92 L84.8475,91.91 C84.0075,90.425 83.0025,88.85 82.1175,87.545 C83.4675,86.975 84.1725,86.03 84.1725,84.695 C84.1725,82.82 82.9125,81.65 80.3025,81.65 L77.1375,81.65 L77.0625,81.74 Z M85.3725,90.77 C86.0475,91.625 87.1575,92.195 88.7025,92.195 C90.8925,92.195 92.4675,91.025 92.4675,88.895 C92.4675,85.085 87.4125,86.63 87.4125,84.335 C87.4125,83.585 87.9525,82.985 89.0025,82.985 C89.6925,82.985 90.2775,83.255 90.7725,83.69 L90.9075,83.69 L92.0925,82.79 L92.0925,82.67 C91.5225,81.995 90.5625,81.44 89.0625,81.44 C86.7975,81.44 85.5525,82.715 85.5525,84.605 C85.5525,88.4 90.6075,86.63 90.6075,89.18 C90.6075,90.14 89.8875,90.665 88.8675,90.665 C87.7875,90.665 87.0675,90.065 86.6775,89.66 L86.5425,89.66 L85.3725,90.635 L85.3725,90.77 Z M96.0975,81.74 L96.0225,81.65 L94.2675,81.65 L94.1925,81.74 L94.1925,91.91 L94.2675,92 L96.0225,92 L96.0975,91.91 L96.0975,81.74 Z M106.2075,81.74 L106.1325,81.65 L104.1675,81.65 L104.0325,81.74 L100.3125,86.495 L100.3125,81.74 L100.2375,81.65 L98.4825,81.65 L98.4075,81.74 L98.4075,91.91 L98.4825,92 L100.2375,92 L100.3125,91.91 L100.3125,88.685 L101.6175,87.155 L104.3475,91.91 L104.4375,92 L106.4925,92 L106.5675,91.91 L102.8925,85.73 L106.2075,81.74 Z M109.7325,83.165 L111.0075,83.165 C112.2525,83.165 113.0325,83.6 113.0325,84.71 C113.0325,85.73 112.3125,86.375 110.8125,86.375 C110.4675,86.375 110.1075,86.36 109.7325,86.33 L109.7325,83.165 Z M107.8275,81.74 L107.8275,91.91 L107.9025,92 L109.6575,92 L109.7325,91.91 L109.7325,87.86 C110.0475,87.89 110.2425,87.905 110.5125,87.905 C110.6775,87.905 110.8425,87.905 111.0225,87.89 C111.7725,89.06 112.4325,90.275 113.4525,92 L115.5375,92 L115.6125,91.91 C114.7725,90.425 113.7675,88.85 112.8825,87.545 C114.2325,86.975 114.9375,86.03 114.9375,84.695 C114.9375,82.82 113.6775,81.65 111.0675,81.65 L107.9025,81.65 L107.8275,81.74 Z M118.8675,81.74 L118.7925,81.65 L117.0375,81.65 L116.9625,81.74 L116.9625,91.91 L117.0375,92 L118.7925,92 L118.8675,91.91 L118.8675,81.74 Z M127.0725,92 L128.8725,92 L128.9475,91.91 L128.9475,81.74 L128.8725,81.65 L127.2225,81.65 L127.1475,81.74 L127.1475,88.88 L123.0525,81.65 L121.2525,81.65 L121.1775,81.74 L121.1775,91.91 L121.2525,92 L122.9025,92 L122.9775,91.91 L122.9775,84.8 L127.0725,92 Z M135.2775,82.97 C136.0875,82.97 136.8075,83.435 137.2425,84.305 L137.3325,84.38 L139.0275,83.945 L139.0875,83.855 C138.3375,82.19 136.9425,81.44 135.3525,81.44 C132.9225,81.44 130.8675,83.135 130.8675,86.84 C130.8675,90.53 132.8775,92.21 135.0825,92.21 C136.0125,92.21 136.8675,91.88 137.4525,91.46 L137.5425,91.91 L137.6175,92 L139.1475,92 L139.2225,91.91 L139.2225,86.615 L139.1475,86.525 L135.6825,86.525 L135.6075,86.615 L135.6075,87.98 L135.6825,88.07 L137.3175,88.07 L137.3175,90.065 C136.8225,90.41 136.2675,90.68 135.5175,90.68 C133.8525,90.68 132.7875,89.06 132.7875,86.855 C132.7875,84.185 134.0175,82.97 135.2775,82.97 Z" id="Helseforsikring" fill="#FFFFFF"></path>
            <g id="Group-16">
                <g id="Group-21">
                    <g id="Group-14" transform="translate(1.000000, 0.000000)">
                        <g id="Page-1" transform="translate(86.000000, 0.000000)">
                            <g id="Image-1">
                                <mask id="mask-2" fill="white">
                                    <use xlink:href="#path-1"></use>
                                </mask>
                                <use id="Mask" fill="#DF0A1E" xlink:href="#path-1"></use>
                            </g>
                            <g id="Group-8" transform="translate(10.181818, 19.927218)" fill="#FEFEFE">
                                <path d="M18.3898909,19.0351636 C18.3898909,20.6273455 18.0946182,22.0248 17.5066182,23.2249818 C16.9186182,24.4264364 16.1257091,25.4318909 15.1266182,26.2400727 C14.1300727,27.0508 12.9782545,27.6629818 11.6737091,28.0817091 C10.3678909,28.4991636 9.01243636,28.7078909 7.6048,28.7078909 C6.37661818,28.7078909 5.10389091,28.6226182 3.78661818,28.4533455 C2.46807273,28.2828 1.25898182,28.0422545 0.159345455,27.7291636 C0.210254545,26.9986182 0.2548,26.3126182 0.294254545,25.6724364 C0.332436364,25.0335273 0.364254545,24.3348 0.389709091,23.5775273 C0.928072727,23.7086182 1.44607273,23.8257091 1.94370909,23.9300727 C2.44261818,24.0344364 2.94789091,24.1324364 3.4608,24.2240727 C3.97243636,24.3157091 4.50316364,24.3869818 5.05298182,24.4391636 C5.6028,24.4913455 6.19716364,24.5180727 6.83734545,24.5180727 C7.52843636,24.5180727 8.21316364,24.4200727 8.89152727,24.2240727 C9.56861818,24.0280727 10.1769818,23.7340727 10.7140727,23.3420727 C11.2511636,22.9513455 11.6864364,22.4549818 12.0186182,21.8542545 C12.3508,21.2548 12.5175273,20.5497091 12.5175273,19.7402545 C12.5175273,18.7997091 12.3698909,18.0106182 12.0758909,17.3704364 C11.7818909,16.7315273 11.3784364,16.2148 10.8668,15.8240727 C10.3551636,15.4320727 9.74807273,15.1520727 9.04425455,14.9815273 C8.34043636,14.8122545 7.57934545,14.7269818 6.76098182,14.7269818 C5.76316364,14.7269818 4.79716364,14.8122545 3.86298182,14.9815273 C2.9288,15.1520727 1.9628,15.3277091 0.966254545,15.5097091 C1.09352727,13.5522545 1.20807273,11.6597091 1.31116364,9.83207273 C1.36207273,9.04807273 1.41298182,8.23989091 1.46516364,7.40370909 C1.51607273,6.5688 1.56061818,5.75298182 1.5988,4.95625455 C1.63698182,4.15952727 1.67516364,3.39589091 1.71461818,2.66534545 C1.7528,1.9348 1.78461818,1.28189091 1.81007273,0.706618182 L17.5066182,0.706618182 C17.4811636,1.35952727 17.4557091,2.05825455 17.4302545,2.80152727 C17.4048,3.54607273 17.3666182,4.29698182 17.3157091,5.05425455 L6.79916364,5.05425455 L6.49243636,10.8884364 C7.00407273,10.7586182 7.47752727,10.6733455 7.9128,10.6338909 C8.3468,10.5957091 8.91061818,10.5753455 9.60043636,10.5753455 C10.7522545,10.5753455 11.8582545,10.7713455 12.9209818,11.1633455 C13.9824364,11.5540727 14.9166182,12.1102545 15.7222545,12.8280727 C16.5278909,13.5458909 17.1744364,14.4278909 17.6606182,15.4715273 C18.1455273,16.5151636 18.3898909,17.7026182 18.3898909,19.0351636" id="Fill-2"></path>
                                <path d="M37.8964727,19.0351636 C37.8964727,20.6273455 37.6012,22.0248 37.0144727,23.2249818 C36.4252,24.4264364 35.6322909,25.4318909 34.6344727,26.2400727 C33.6366545,27.0508 32.4848364,27.6629818 31.1802909,28.0817091 C29.8744727,28.4991636 28.5190182,28.7078909 27.1113818,28.7078909 C25.8832,28.7078909 24.6104727,28.6226182 23.2932,28.4533455 C21.9746545,28.2828 20.7655636,28.0422545 19.6659273,27.7291636 C19.7168364,26.9986182 19.7626545,26.3126182 19.8008364,25.6724364 C19.8390182,25.0335273 19.8708364,24.3348 19.8962909,23.5775273 C20.4346545,23.7086182 20.9513818,23.8257091 21.4502909,23.9300727 C21.9492,24.0344364 22.4544727,24.1324364 22.9673818,24.2240727 C23.4790182,24.3157091 24.0097455,24.3869818 24.5595636,24.4391636 C25.1093818,24.4913455 25.7037455,24.5180727 26.3439273,24.5180727 C27.0350182,24.5180727 27.7197455,24.4200727 28.3968364,24.2240727 C29.0752,24.0280727 29.6835636,23.7340727 30.2206545,23.3420727 C30.7577455,22.9513455 31.1930182,22.4549818 31.5252,21.8542545 C31.8573818,21.2548 32.0241091,20.5497091 32.0241091,19.7402545 C32.0241091,18.7997091 31.8764727,18.0106182 31.5824727,17.3704364 C31.2884727,16.7315273 30.8850182,16.2148 30.3733818,15.8240727 C29.8617455,15.4320727 29.2546545,15.1520727 28.5508364,14.9815273 C27.8470182,14.8122545 27.0859273,14.7269818 26.2675636,14.7269818 C25.2697455,14.7269818 24.3037455,14.8122545 23.3695636,14.9815273 C22.4353818,15.1520727 21.4693818,15.3277091 20.4728364,15.5097091 C20.6001091,13.5522545 20.7146545,11.6597091 20.8177455,9.83207273 C20.8686545,9.04807273 20.9195636,8.23989091 20.9717455,7.40370909 C21.0226545,6.5688 21.0672,5.75298182 21.1053818,4.95625455 C21.1435636,4.15952727 21.1817455,3.39589091 21.2212,2.66534545 C21.2593818,1.9348 21.2912,1.28189091 21.3166545,0.706618182 L37.0144727,0.706618182 C36.9877455,1.35952727 36.9622909,2.05825455 36.9368364,2.80152727 C36.9113818,3.54607273 36.8732,4.29698182 36.8210182,5.05425455 L26.3057455,5.05425455 L25.9990182,10.8884364 C26.5106545,10.7586182 26.9828364,10.6733455 27.4181091,10.6338909 C27.8533818,10.5957091 28.4159273,10.5753455 29.1070182,10.5753455 C30.2588364,10.5753455 31.3648364,10.7713455 32.4275636,11.1633455 C33.4890182,11.5540727 34.4232,12.1102545 35.2288364,12.8280727 C36.0344727,13.5458909 36.6810182,14.4278909 37.1672,15.4715273 C37.6533818,16.5151636 37.8964727,17.7026182 37.8964727,19.0351636" id="Fill-4"></path>
                                <polygon id="Fill-6" points="48.6371455 12.8656182 48.6371455 8.01143636 44.6395091 8.01143636 44.6395091 12.8656182 39.7853273 12.8656182 39.7853273 16.8632545 44.6395091 16.8632545 44.6395091 21.7174364 48.6371455 21.7174364 48.6371455 16.8632545 53.4913273 16.8632545 53.4913273 12.8656182"></polygon>
                            </g>
                        </g>
                        <path d="M0.47,24.346 L8.324,24.346 L8.324,48.748 L8.534,49 L13.448,49 L13.658,48.748 L13.658,24.346 L21.512,24.346 L21.722,24.094 L21.722,20.272 L21.512,20.02 L0.47,20.02 L0.26,20.272 L0.26,24.094 L0.47,24.346 Z M36.8,32.2 L36.8,27.37 L36.548,27.16 C33.23,27.202 31.592,28.672 30.5,30.73 L30.5,27.58 L30.248,27.328 C28.778,27.37 26.258,27.58 25.586,27.706 L25.586,48.748 L25.796,49 L30.29,49 L30.5,48.748 L30.5,38.29 C30.5,34.678 31.466,32.326 35.162,32.326 C35.666,32.326 36.086,32.368 36.548,32.41 L36.8,32.2 Z M51.794,27.832 L47.72,42.322 L43.478,27.832 L43.226,27.58 L38.648,27.58 L38.48,27.832 L45.2,48.958 L42.722,56.35 L42.932,56.602 L47.594,56.602 L47.888,56.35 L50.072,49.21 L56.792,27.832 L56.624,27.58 L52.004,27.58 L51.794,27.832 Z M77.54,31.486 L77.792,31.276 L77.792,27.79 L77.54,27.58 L70.442,27.58 C69.518,27.328 68.552,27.16 67.502,27.16 C62.756,27.16 59.144,30.058 59.144,34.93 C59.144,37.576 60.278,39.718 62.084,41.104 C60.152,42.028 59.102,43.624 59.102,45.598 C59.102,48.328 60.446,50.638 65.066,50.638 L68.972,50.638 C71.45,50.638 72.248,51.73 72.248,53.368 C72.248,54.334 71.996,55.552 71.87,56.35 L72.038,56.602 L76.364,56.602 L76.574,56.35 C76.784,55.258 77.036,53.074 77.036,51.856 C77.036,48.328 74.6,46.48 70.568,46.48 L66.158,46.48 C64.436,46.48 63.722,45.766 63.722,44.674 C63.722,43.498 64.436,42.742 66.284,42.742 L67.502,42.742 C72.332,42.742 75.902,39.592 75.902,34.972 C75.902,33.628 75.524,32.452 74.936,31.486 L77.54,31.486 Z M63.974,35.098 C63.974,32.998 65.36,31.318 67.502,31.318 C69.644,31.318 71.072,32.998 71.072,35.098 C71.072,37.282 69.686,38.878 67.502,38.878 C65.36,38.878 63.974,37.282 63.974,35.098 Z" id="Tryg" fill="#000000"></path>
                    </g>
                    <g id="Group-20" fill="#000000">
                        <path d="M5.604,9 L7.044,9 L7.104,8.928 L7.104,0.792 L7.044,0.72 L5.724,0.72 L5.664,0.792 L5.664,6.504 L2.388,0.72 L0.948,0.72 L0.888,0.792 L0.888,8.928 L0.948,9 L2.268,9 L2.328,8.928 L2.328,3.24 L5.604,9 Z M13.08,0.72 L13.02,0.792 L11.364,4.428 L9.732,0.792 L9.672,0.72 L8.232,0.72 L8.172,0.792 L10.596,5.736 L10.596,8.928 L10.656,9 L12.06,9 L12.12,8.928 L12.12,5.724 L14.568,0.792 L14.508,0.72 L13.08,0.72 Z M21.852,0.792 L21.792,0.72 L20.388,0.72 L20.328,0.792 L20.328,4.176 L17.172,4.176 L17.172,0.792 L17.112,0.72 L15.708,0.72 L15.648,0.792 L15.648,8.928 L15.708,9 L17.112,9 L17.172,8.928 L17.172,5.424 L20.328,5.424 L20.328,8.928 L20.388,9 L21.792,9 L21.852,8.928 L21.852,0.792 Z M28.692,1.884 L28.692,0.792 L28.632,0.72 L23.7,0.72 L23.64,0.792 L23.64,8.928 L23.7,9 L28.728,9 L28.788,8.928 L28.788,7.836 L28.728,7.764 L25.164,7.764 L25.164,5.412 L28.128,5.412 L28.188,5.34 L28.188,4.248 L28.128,4.176 L25.164,4.176 L25.164,1.956 L28.632,1.956 L28.692,1.884 Z M29.7,1.956 L31.944,1.956 L31.944,8.928 L32.004,9 L33.408,9 L33.468,8.928 L33.468,1.956 L35.712,1.956 L35.772,1.884 L35.772,0.792 L35.712,0.72 L29.7,0.72 L29.64,0.792 L29.64,1.884 L29.7,1.956 Z M36.564,8.208 C36.564,8.712 36.96,9.12 37.476,9.12 C37.956,9.12 38.376,8.712 38.376,8.208 C38.376,7.716 37.956,7.308 37.476,7.308 C36.96,7.308 36.564,7.716 36.564,8.208 Z M36.564,3.78 C36.564,4.296 36.96,4.692 37.476,4.692 C37.956,4.692 38.376,4.296 38.376,3.78 C38.376,3.3 37.956,2.88 37.476,2.88 C36.96,2.88 36.564,3.3 36.564,3.78 Z" id="Nyhet:"></path>
                    </g>
                </g>
            </g>
        </g>
    </g>
</svg>