<?xml version="1.0" encoding="UTF-8"?>
<svg width="213px" height="398px" viewBox="0 0 213 398" version="1.1" xmlns="http://www.w3.org/2000/svg" xmlns:xlink="http://www.w3.org/1999/xlink">
    <!-- Generator: Sketch 41 (35326) - http://www.bohemiancoding.com/sketch -->
    <title>Group 5</title>
    <desc>Created with Sketch.</desc>
    <defs></defs>
    <g id="Page-1" stroke="none" stroke-width="1" fill="none" fill-rule="evenodd">
        <g id="iPad-Landscape" transform="translate(-124.000000, -799.000000)" fill="#D8D8D8">
            <g id="Group-8" transform="translate(109.000000, 718.000000)">
                <g id="Group-6" transform="translate(0.000000, 81.000000)">
                    <g id="Group-5" transform="translate(8.000000, 0.000000)">
                        <rect id="Rectangle-5" x="74.1940299" y="0" width="78.6119403" height="78.8290598" rx="39.3059701"></rect>
                        <g id="Group-3" transform="translate(57.104478, 200.786325)">
                            <rect id="Rectangle-6" transform="translate(27.343284, 99.106838) rotate(4.000000) translate(-27.343284, -99.106838) " x="6.8358209" y="1.42735043" width="41.0149254" height="195.358974" rx="20.5074627"></rect>
                            <rect id="Rectangle-6" transform="translate(85.447761, 99.106838) rotate(-4.000000) translate(-85.447761, -99.106838) " x="64.9402985" y="1.42735043" width="41.0149254" height="195.358974" rx="20.5074627"></rect>
                        </g>
                        <g id="Group-4" transform="translate(0.000000, 82.829060)">
                            <g id="Group-2" transform="translate(134.298507, 0.399135)">
                                <rect id="Rectangle-6" transform="translate(45.524501, 35.167949) rotate(-59.000000) translate(-45.524501, -35.167949) " x="31.1661611" y="-8.88679177" width="28.7166805" height="88.1094811" rx="14.3583403"></rect>
                                <rect id="Rectangle-6" transform="translate(50.467600, 78.762972) rotate(-143.000000) translate(-50.467600, -78.762972) " x="36.1092596" y="30.2364352" width="28.7166805" height="97.0530736" rx="14.3583403"></rect>
                            </g>
                            <g id="Group-2" transform="translate(46.701493, 63.899135) scale(-1, 1) translate(-46.701493, -63.899135) translate(0.701493, 0.399135)">
                                <rect id="Rectangle-6" transform="translate(45.524501, 35.167949) rotate(-59.000000) translate(-45.524501, -35.167949) " x="31.1661611" y="-8.88679177" width="28.7166805" height="88.1094811" rx="14.3583403"></rect>
                                <rect id="Rectangle-6" transform="translate(50.467600, 78.762972) rotate(-143.000000) translate(-50.467600, -78.762972) " x="36.1092596" y="30.2364352" width="28.7166805" height="97.0530736" rx="14.3583403"></rect>
                            </g>
                            <rect id="Rectangle-7" x="69.0671642" y="6.28205128" width="88.8656716" height="147.376068"></rect>
                        </g>
                    </g>
                </g>
            </g>
        </g>
    </g>
</svg>