<?xml version="1.0" encoding="UTF-8" standalone="no"?>
<svg width="142px" height="60px" viewBox="0 0 142 60" version="1.1" xmlns="http://www.w3.org/2000/svg" xmlns:xlink="http://www.w3.org/1999/xlink">
    <!-- Generator: Sketch 41 (35326) - http://www.bohemiancoding.com/sketch -->
    <title>Tryg_White_2D_Tab_left_RGB</title>
    <desc>Created with Sketch.</desc>
    <defs>
        <polygon id="path-1" points="0.06 59.94 141.732 59.94 141.732 0.598 0.06 0.598"></polygon>
    </defs>
    <g id="Page-1" stroke="none" stroke-width="1" fill="none" fill-rule="evenodd">
        <g id="Tryg_White_2D_Tab_left_RGB" transform="translate(-0.060547, -0.468750)">
            <g id="Group-3">
                <mask id="mask-2" fill="white">
                    <use xlink:href="#path-1"></use>
                </mask>
                <g id="Clip-2"></g>
                <path d="M141.732,50.945 C141.732,55.926 137.658,60 132.678,60 L0,60 L0,0.598 L132.678,0.598 C137.658,0.598 141.732,4.673 141.732,9.652 L141.732,50.945" id="Fill-1" fill="#FFFFFF" mask="url(#mask-2)"></path>
            </g>
            <path d="M107.846,41.36 C107.634,41.188 107.377,40.927 107.223,40.788 C106.11,39.767 105.175,38.542 104.479,37.148 C104.303,36.795 104.143,36.438 104,36.075 C104.852,37.597 105.961,38.926 107.269,40.013 C107.418,39.477 107.783,38.895 108.258,38.308 C109.035,37.347 109.867,36.67 110.655,36.794 C110.821,36.953 110.992,37.105 111.173,37.252 C114.616,40.044 119.603,39.672 122.609,36.519 C122.502,37.3 123.178,38.12 124.13,38.891 C125.041,39.631 125.947,40.115 126.676,39.917 C121.817,45.277 113.534,45.97 107.846,41.36 Z M124.013,30.681 C124.013,32.395 123.416,34.074 122.337,35.409 C119.729,38.629 114.985,39.128 111.768,36.517 C109.998,35.083 108.981,32.953 108.981,30.672 C108.981,28.957 109.577,27.277 110.66,25.943 C111.921,24.382 113.717,23.407 115.714,23.198 C117.71,22.989 119.669,23.57 121.228,24.834 C122.997,26.269 124.013,28.4 124.013,30.681 Z M125.149,19.991 C125.379,20.177 125.599,20.37 125.814,20.568 C125.939,21.277 125.471,22.139 124.768,23.006 C124.215,23.691 123.632,24.225 123.057,24.436 C123.716,25.269 124.226,26.225 124.53,27.277 C124.641,27.66 124.724,28.048 124.778,28.438 C124.271,26.88 123.374,25.512 122.198,24.431 C122.093,24.332 121.984,24.234 121.871,24.142 C121.828,24.106 121.783,24.074 121.741,24.039 C119.998,22.661 117.829,22.026 115.614,22.258 C113.566,22.473 111.711,23.411 110.32,24.904 C110.547,24.077 109.849,23.195 108.833,22.372 C107.981,21.681 107.131,21.215 106.43,21.32 C111.302,16.065 119.503,15.414 125.149,19.991 Z M125.798,19.19 C119.468,14.059 110.146,15.038 105.018,21.37 C102.892,23.995 101.722,27.296 101.722,30.668 C101.722,35.151 103.717,39.341 107.197,42.16 C113.527,47.291 122.85,46.313 127.978,39.981 C130.104,37.356 131.272,34.055 131.272,30.685 C131.272,26.199 129.278,22.01 125.798,19.19 L125.798,19.19 Z" id="Fill-4" fill="#F20403"></path>
            <path d="M73.116,32.049 L72.998,32.049 C70.651,32.049 69.559,30.926 69.559,28.502 C69.559,26.117 70.679,24.955 72.998,24.955 L73.138,24.955 C75.408,24.982 76.515,26.147 76.515,28.502 C76.515,30.897 75.439,32.021 73.116,32.049 Z M73.147,21.956 C68.3,21.956 63.905,23.543 63.905,28.993 C63.905,31.575 65.392,33.333 67.464,34.306 C67.464,34.306 67.519,34.331 67.594,34.364 L67.038,34.759 C65.535,35.774 63.921,37.214 63.921,39.233 C63.921,40.768 65.033,41.711 66.289,42.166 C67.958,42.825 70.047,42.752 71.547,42.791 C72.317,42.825 74.934,42.529 76.148,42.976 C76.559,43.157 76.919,43.565 76.919,44.05 C76.919,44.984 75.46,47.534 75.46,47.534 L80.972,47.534 L81.233,46.959 L82.095,45.04 C82.377,44.356 82.482,43.886 82.482,43.227 L82.482,43.175 C82.296,38.435 76.721,38.47 75.66,38.399 L72,38.299 C72,38.299 70.017,38.399 70.017,37.121 C70.017,36.287 70.853,35.593 71.761,35.021 C71.761,35.021 73.023,35.129 74.035,35.129 C78.674,35.129 82.129,33.162 82.129,28.993 C82.129,27.351 81.254,25.836 80.927,25.259 L83.542,25.39 L83.542,22.238 L77.156,22.238 C77.156,22.238 75.454,21.956 73.147,21.956 Z M52.729,33.667 C52.596,33.256 49.202,23.21 48.877,22.238 L42.29,22.238 C43.05,23.909 49.777,38.665 49.826,38.787 L46.099,46.349 L52.186,46.352 L63.199,22.238 L56.581,22.238 L52.729,33.667 Z M28.992,23.046 L28.992,38.457 L34.765,38.457 L34.765,26.618 C34.765,26.618 36.515,26.225 38.243,26.225 C39.228,26.225 40.274,26.347 40.274,26.347 L40.274,22.063 C40.274,22.063 38.861,22 38.3,22 C32.639,22 28.992,23.046 28.992,23.046 Z M8.826,20.947 L15.361,20.947 L15.361,38.459 L21.31,38.459 L21.31,20.947 L27.904,20.947 L27.904,16.884 L8.826,16.884 L8.826,20.947 Z M92.376,49.152 L93.88,49.152 L93.88,10.581 L92.376,10.581 L92.376,49.152 Z" id="Fill-5" fill="#F20403"></path>
        </g>
    </g>
</svg>