<?xml version="1.0" encoding="UTF-8" standalone="no"?>
<svg width="142px" height="60px" viewBox="0 0 142 60" version="1.1" xmlns="http://www.w3.org/2000/svg" xmlns:xlink="http://www.w3.org/1999/xlink">
    <!-- Generator: Sketch 41 (35326) - http://www.bohemiancoding.com/sketch -->
    <title>Tryg_Red_2D_RGB</title>
    <desc>Created with Sketch.</desc>
    <defs>
        <polygon id="path-1" points="0.06 59.94 141.732 59.94 141.732 0.598 0.06 0.598"></polygon>
    </defs>
    <g id="Page-1" stroke="none" stroke-width="1" fill="none" fill-rule="evenodd">
        <g id="Tryg_Red_2D_RGB" transform="translate(0.263672, -0.048828)">
            <g id="Group-3">
                <mask id="mask-2" fill="white">
                    <use xlink:href="#path-1"></use>
                </mask>
                <g id="Clip-2"></g>
                <path d="M141.732,50.944 C141.732,55.925 137.658,60 132.678,60 L9.055,60 C4.076,60 0,55.925 0,50.944 L0,9.653 C0,4.673 4.076,0.598 9.055,0.598 L132.678,0.598 C137.658,0.598 141.732,4.673 141.732,9.653 L141.732,50.944" id="Fill-1" fill="#F20403" mask="url(#mask-2)"></path>
            </g>
            <path d="M127.184,39.326 C127.01,39.538 126.75,39.794 126.611,39.948 C125.59,41.061 124.365,41.997 122.971,42.692 C122.619,42.869 122.26,43.029 121.896,43.172 C123.42,42.319 124.748,41.21 125.836,39.902 C125.299,39.753 124.719,39.389 124.131,38.914 C123.17,38.138 122.494,37.305 122.615,36.517 C122.775,36.351 122.928,36.18 123.074,36 C125.865,32.556 125.494,27.57 122.342,24.563 C123.123,24.67 123.943,23.995 124.713,23.043 C125.453,22.131 125.939,21.225 125.742,20.497 C131.1,25.355 131.793,33.638 127.184,39.326 Z M116.504,23.16 C118.219,23.16 119.898,23.756 121.232,24.836 C124.453,27.444 124.951,32.187 122.34,35.405 C120.906,37.175 118.775,38.19 116.496,38.19 C114.779,38.19 113.1,37.595 111.766,36.513 C110.205,35.251 109.23,33.456 109.021,31.458 C108.811,29.462 109.393,27.504 110.658,25.945 C112.092,24.175 114.223,23.16 116.504,23.16 Z M105.813,22.023 C106,21.793 106.193,21.574 106.391,21.358 C107.1,21.234 107.963,21.702 108.828,22.406 C109.514,22.958 110.049,23.54 110.26,24.115 C111.092,23.456 112.047,22.947 113.1,22.643 C113.482,22.532 113.871,22.449 114.262,22.395 C112.705,22.902 111.336,23.798 110.254,24.975 C110.156,25.08 110.059,25.188 109.965,25.301 C109.93,25.345 109.896,25.39 109.863,25.432 C108.482,27.174 107.848,29.343 108.082,31.558 C108.295,33.606 109.234,35.461 110.727,36.852 C109.9,36.625 109.018,37.323 108.195,38.34 C107.504,39.191 107.039,40.041 107.143,40.742 C101.889,35.871 101.238,27.669 105.813,22.023 Z M105.014,21.375 C99.883,27.705 100.861,37.026 107.193,42.154 C109.818,44.28 113.119,45.45 116.49,45.45 C120.975,45.45 125.164,43.455 127.982,39.975 C133.113,33.645 132.137,24.323 125.805,19.195 C123.18,17.069 119.879,15.9 116.506,15.9 C112.023,15.9 107.834,17.894 105.014,21.375 L105.014,21.375 Z" id="Fill-4" fill="#FFFFFF"></path>
            <path d="M73.117,32.049 L72.998,32.049 C70.652,32.049 69.559,30.925 69.559,28.502 C69.559,26.116 70.68,24.955 72.998,24.955 L73.139,24.955 C75.408,24.982 76.516,26.147 76.516,28.502 C76.516,30.897 75.439,32.02 73.117,32.049 Z M73.148,21.957 C68.301,21.957 63.906,23.543 63.906,28.993 C63.906,31.574 65.393,33.333 67.465,34.306 C67.465,34.306 67.518,34.331 67.594,34.365 L67.039,34.759 C65.537,35.773 63.922,37.214 63.922,39.232 C63.922,40.767 65.035,41.709 66.289,42.165 C67.957,42.824 70.047,42.751 71.547,42.79 C72.318,42.824 74.934,42.528 76.15,42.975 C76.559,43.156 76.92,43.565 76.92,44.049 C76.92,44.983 75.461,47.534 75.461,47.534 L80.973,47.534 L81.234,46.959 L82.096,45.039 C82.377,44.355 82.482,43.885 82.482,43.226 L82.482,43.175 C82.297,38.435 76.723,38.47 75.662,38.399 L72,38.299 C72,38.299 70.018,38.399 70.018,37.12 C70.018,36.286 70.854,35.593 71.762,35.021 C71.762,35.021 73.023,35.129 74.037,35.129 C78.674,35.129 82.129,33.162 82.129,28.993 C82.129,27.351 81.254,25.837 80.928,25.259 L83.543,25.391 L83.543,22.239 L77.158,22.239 C77.158,22.239 75.455,21.957 73.148,21.957 Z M52.73,33.667 C52.598,33.256 49.203,23.211 48.877,22.239 L42.291,22.239 C43.051,23.909 49.777,38.664 49.826,38.787 L46.1,46.349 L52.187,46.352 L63.201,22.239 L56.582,22.239 L52.73,33.667 Z M28.994,23.047 L28.994,38.456 L34.766,38.456 L34.766,26.618 C34.766,26.618 36.516,26.225 38.244,26.225 C39.229,26.225 40.275,26.347 40.275,26.347 L40.275,22.064 C40.275,22.064 38.863,22.001 38.301,22.001 C32.639,22.001 28.994,23.047 28.994,23.047 Z M8.828,20.948 L15.363,20.948 L15.363,38.459 L21.311,38.459 L21.311,20.948 L27.906,20.948 L27.906,16.886 L8.828,16.886 L8.828,20.948 Z M92.377,49.152 L93.881,49.152 L93.881,10.582 L92.377,10.582 L92.377,49.152 Z" id="Fill-5" fill="#FFFFFF"></path>
        </g>
    </g>
</svg>